<?xml version="1.0" encoding="utf-8"?>
<!-- Generator: Adobe Illustrator 22.1.0, SVG Export Plug-In . SVG Version: 6.00 Build 0)  -->
<svg version="1.1" id="Layer_1" xmlns="http://www.w3.org/2000/svg" xmlns:xlink="http://www.w3.org/1999/xlink" x="0px" y="0px"
	 viewBox="0 0 16 16" style="enable-background:new 0 0 16 16;" xml:space="preserve">
<style type="text/css">
	.st0{fill:#0073B5;}
</style>
<g>
	<path class="st0" d="M13.8,10.1c-0.2-1.3-0.4-2.5-0.7-3.8c-0.1-0.6-0.2-1.2-0.3-1.7c0-0.2-0.1-0.2-0.3-0.2c-0.2,0-0.5,0-0.7,0
		c-0.2,0-0.2,0-0.2-0.2c0-1.3,0-2.6,0-4c0-0.2,0-0.2,0.2-0.2c1.4,0,2.7,0,4,0C16,0,16,0.1,16,0.2c0,1.3,0,2.6,0,4
		c0,0.2,0,0.2-0.2,0.2c-0.2,0-0.4,0-0.6,0c-0.2,0-0.2,0-0.3,0.2c-0.3,1.6-0.6,3.1-0.9,4.6C14,9.6,13.9,9.9,13.8,10.1
		C13.8,10.1,13.8,10.1,13.8,10.1z"/>
	<path class="st0" d="M5.7,13.8c1-0.2,1.8-0.3,2.7-0.5c1-0.2,1.9-0.4,2.8-0.5c0.2,0,0.3-0.1,0.3-0.3c0-0.2,0-0.5,0-0.7
		c0-0.1,0-0.2,0.2-0.2c1.4,0,2.7,0,4.1,0c0.2,0,0.2,0.1,0.2,0.2c0,1.3,0,2.6,0,4c0,0.2-0.1,0.2-0.2,0.2c-1.3,0-2.6,0-4,0
		c-0.2,0-0.2-0.1-0.2-0.2c0-0.1,0-0.2,0-0.2c0-0.7,0.2-0.6-0.6-0.7C9.2,14.4,7.5,14.1,5.7,13.8z"/>
	<path class="st0" d="M10.1,2.2C9.1,2.4,7.9,2.6,6.9,2.8C6.1,2.9,5.4,3.1,4.7,3.2c-0.2,0-0.3,0.1-0.3,0.3c0,0.2,0,0.4,0,0.7
		c0,0.1,0,0.2-0.2,0.2c-1.3,0-2.7,0-4,0C0,4.4,0,4.3,0,4.2c0-1.3,0-2.6,0-4C0,0,0,0,0.2,0c1.3,0,2.6,0,4,0c0.2,0,0.2,0.1,0.2,0.2
		c0,0.2,0,0.4,0,0.6c0,0.2,0.1,0.2,0.2,0.3C5.8,1.4,7,1.6,8.2,1.8C8.8,1.9,9.5,2,10.1,2.2L10.1,2.2z"/>
	<path class="st0" d="M2.2,5.9c0.3,1.8,0.7,3.6,1,5.4c0,0.2,0.1,0.3,0.3,0.3s0.4,0,0.6,0c0.2,0,0.3,0,0.3,0.3c0,1,0,1.9,0,2.8
		c0,0.4,0,0.7,0,1.1c0,0.2,0,0.2-0.2,0.2c-1.3,0-2.6,0-3.9,0C0,16,0,15.9,0,15.7c0-1.3,0-2.6,0-3.9c0-0.2,0.1-0.2,0.2-0.2
		c0.2,0,0.4,0,0.7,0c0.2,0,0.2,0,0.2-0.2C1.4,10.2,1.6,9,1.8,7.8C1.9,7.2,2,6.5,2.2,5.9C2.2,5.9,2.2,5.9,2.2,5.9z"/>
	<path class="st0" d="M9.3,8.7c0.6-0.2,1.2-0.3,1.8-0.4c0,0,0.2,0.1,0.2,0.1c0.2,0.6,0.3,1.1,0.4,1.7c-0.6,0.2-1.2,0.3-1.8,0.4
		c0,0-0.2-0.1-0.2-0.2C9.7,10,9.5,10,9.2,10c-0.4,0-0.8,0-1.2,0c0.4-0.2,0.7-0.4,1-0.5C9.3,9.4,9.4,9.3,9.3,9
		C9.3,8.9,9.3,8.8,9.3,8.7z"/>
	<path class="st0" d="M10,7.9C9.9,7.5,9.7,7.2,9.5,6.8C9.4,6.6,9.3,6.5,9.1,6.6c-0.2,0.1-0.4,0-0.4-0.2c-0.1-0.5-0.3-1-0.4-1.6
		C8.8,4.7,9.4,4.5,10,4.4c0,0,0.2,0.1,0.2,0.1c0.2,0.6,0.3,1.1,0.5,1.7c-0.1,0-0.1,0-0.2,0.1C10,6.4,10,6.4,10,6.9
		C10,7.2,10.1,7.5,10,7.9C10.1,7.9,10,7.9,10,7.9z"/>
	<path class="st0" d="M6.7,7.2C6.1,7.4,5.5,7.5,5,7.7c0,0-0.2-0.1-0.2-0.1C4.6,7,4.5,6.5,4.3,5.9c0.3-0.1,0.6-0.2,0.9-0.2
		c0.2,0,0.3-0.1,0.5-0.1c0.4-0.1,0.5-0.1,0.6,0.3C6.4,6,6.5,6,6.6,6c0.4,0,0.9,0,1.4-0.1C7.7,6.1,7.5,6.2,7.3,6.3c0,0-0.1,0-0.2,0.1
		C6.6,6.6,6.6,6.6,6.7,7.2z"/>
	<path class="st0" d="M6,8.1c0.2,0.4,0.4,0.7,0.5,1.1c0.1,0.2,0.2,0.3,0.4,0.2c0.4-0.1,0.4-0.1,0.4,0.3c0.1,0.5,0.2,1,0.4,1.5
		c-0.6,0.2-1.2,0.3-1.7,0.5c0,0-0.2,0-0.2-0.1C5.7,11,5.5,10.4,5.4,9.8c0.1,0,0.1,0,0.1-0.1C6,9.6,6,9.6,6,9C5.9,8.7,5.9,8.4,6,8.1
		C5.9,8.1,6,8.1,6,8.1z"/>
</g>
</svg>
